# AST/ASF file generated using VICON BodyLanguage
# -----------------------------------------------
:version 1.10
:name VICON
:units
  mass 1.0
  length 0.45
  angle deg
:documentation
   .ast/.asf automatically generated from VICON data using
   VICON BodyBuilder and BodyLanguage model FoxedUp or BRILLIANT.MOD
:root
   order TX TY TZ RX RY RZ
   axis XYZ
   position 0 0 0  
   orientation 0 0 0 
:bonedata
  begin
     id 1 
     name lhipjoint
     direction 0.671379 -0.66392 0.329334 
     length 2.38647 
     axis 0 0 0  XYZ
  end
  begin
     id 2 
     name lfemur
     direction 0.34202 -0.939693 0  
     length 6.48179  
     axis 0 0 20  XYZ
    dof rx ry rz
    limits (-160.0 20.0)
           (-70.0 70.0)
           (-60.0 70.0)
  end
  begin
     id 3 
     name ltibia
     direction 0.34202 -0.939693 0   
     length 6.86524   
     axis 0 0 20   XYZ
    dof rx
    limits (-10.0 170.0)
  end
  begin
     id 4 
     name lfoot
     direction 0.204886 -0.562919 0.800715   
     length 1.73031   
     axis -90 7.62852e-016 20   XYZ
    dof rx rz
    limits (-45.0 90.0)
           (-70.0 20.0)
  end
  begin
     id 5 
     name ltoes
     direction 1.53548e-011 -4.21841e-011 1   
     length 0.828161   
     axis -90 7.62852e-016 20   XYZ
    dof rx
    limits (-90.0 20.0)
  end
  begin
     id 6 
     name rhipjoint
     direction -0.662732 -0.670855 0.332775   
     length 2.3618  
     axis 0 0 0  XYZ 
  end
  begin
     id 7 
     name rfemur
     direction -0.34202 -0.939693 0   
     length 6.3025   
     axis 0 0 -20   XYZ
    dof rx ry rz
    limits (-160.0 20.0)
           (-70.0 70.0)
           (-70.0 60.0)
  end
  begin
     id 8 
     name rtibia
     direction -0.34202 -0.939693 0   
     length 6.8732   
     axis 0 0 -20   XYZ
    dof rx
    limits (-10.0 170.0)
 end
 begin
     id 9 
     name rfoot
     direction -0.173856 -0.477665 0.861168   
     length 1.54784  
     axis -90 -7.62852e-016 -20   XYZ
    dof rx rz
    limits (-45.0 90.0)
           (-20.0 70.0)
  end
  begin
     id 10 
     name rtoes
     direction -1.53562e-011 -4.21802e-011 1   
     length 0.759618   
     axis -90 -7.62852e-016 -20   XYZ
    dof rx
    limits (-90.0 20.0)
  end
  begin
     id 11 
     name lowerback
     direction -0.0278357 0.999497 -0.0151789   
     length 1.97203   
     axis 0 0 0   XYZ
    dof rx ry rz
    limits (-20.0 45.0)
           (-30.0 30.0)
           (-30.0 30.0)
  end
  begin
     id 12 
     name upperback
     direction -0.00360622 0.997542 0.0699804   
     length 1.94709   
     axis 0 0 0   XYZ
    dof rx ry rz
    limits (-20.0 45.0)
           (-30.0 30.0)
           (-30.0 30.0)
  end
  begin
     id 13 
     name thorax
     direction 0.00907706 0.997048 0.0762461   
     length 1.95722   
     axis 0 0 0   XYZ
    dof rx ry rz
    limits (-20.0 45.0)
           (-30.0 30.0)
           (-30.0 30.0)
  end
  begin
     id 14 
     name lowerneck
     direction -0.0481835 0.99872 -0.0153927   
     length 1.63078   
     axis 0 0 0   XYZ
    dof rx ry rz
    limits (-20.0 45.0)
           (-30.0 30.0)
           (-30.0 30.0)
  end
  begin
     id 15 
     name upperneck
     direction 0.0859716 0.979226 -0.183644   
     length 1.62591   
     axis 0 0 0   XYZ
    dof rx ry rz
    limits (-20.0 45.0)
           (-30.0 30.0)
           (-30.0 30.0)
  end
  begin
     id 16
     name head
     direction 0.0324821 0.997629 -0.0606773  
     length 1.64811  
     axis 0 0 0   XYZ
    dof rx ry rz
    limits (-20.0 45.0)
           (-30.0 30.0)
           (-30.0 30.0)
  end
  begin
     id 17 
     name lclavicle
     direction 0.939609 0.311019 0.142835  
     length 3.70647  
     axis 0 0 0   XYZ
    dof ry rz
    limits (-20.0 10.0)
           (0.0 20.0)
  end
  begin
     id 18 
     name lhumerus
     direction 1 -4.48963e-011 -1.59838e-027   
     length 4.59207   
     axis 180 -30 -90   XYZ
    dof rx ry rz
    limits (-60.0 90.0)
           (-90.0 90.0)
           (-90.0 90.0)
  end
  begin
     id 19
     name lradius
     direction 1 -4.48957e-011 -1.3483e-026   
     length 2.98109   
     axis 180 -30 -90   XYZ
    dof rx
    limits (-10.0 170.0)
  end
  begin
     id 20
     name lwrist
     direction 1 -4.48954e-011 -3.11579e-026   
     length 1.49055   
     axis 2.00652e-014 90 90   XYZ
    dof ry
    limits (-180.0 0.0)
 end
  begin
     id 21 
     name lhand
     direction 1 -4.4911e-011 -6.23158e-026   
     length 0.480203   
     axis 3.97628e-014 90 90   XYZ
    dof rx rz
    limits (-90.0 90.0)
           (-45.0 45.0)
  end
  begin
     id 22 
     name lfingers
     direction 1 -4.48893e-011 -1.24632e-025   
     length 0.387152   
     axis 7.95256e-014 90 90   XYZ
    dof rx
    limits (0.0 90.0)
  end
  begin
     id 23
     name lthumb
     direction 0.707107 -6.35013e-011 0.707107   
     length 0.555875   
     axis -90 45 2.85299e-015   XYZ
    dof rx rz
    limits (-45.0 45.0)
           (-45.0 45.0)
  end
  begin
     id 24 
     name rclavicle
     direction -0.950396 0.30392 0.0661859   
     length 3.70894  
     axis 0 0 0   XYZ 
    dof ry rz
    limits (-10.0 20.0)
           (-20.0 0.0)
  end
  begin
     id 25 
     name rhumerus
     direction -1 -4.48957e-011 -2.96677e-027  
     length 4.76508   
     axis 180 30 90   XYZ
    dof rx ry rz
    limits (-90.0 60.0)
           (-90.0 90.0)
           (-90.0 90.0)
  end
  begin
     id 26 
     name rradius
     direction -1 -4.48974e-011 -1.44501e-026   
     length 2.78902   
     axis 180 30 90   XYZ
    dof rx
    limits (-10.0 170.0)
  end
  begin
     id 27 
     name rwrist
     direction -1 -4.48978e-011 -3.11579e-026   
     length 1.39451   
     axis 2.00652e-014 -90 -90   XYZ
    dof ry
    limits (-180.0 0.0)
  end
  begin
     id 28
     name rhand
     direction -1 -4.48956e-011 -6.23158e-026   
     length 0.721303   
     axis 3.97628e-014 -90 -90   XYZ
    dof rx rz
    limits (-90.0 90.0)
           (-45.0 45.0)
  end
  begin
     id 29
     name rfingers
     direction -1 -4.4899e-011 -1.24632e-025   
     length 0.581533   
     axis 7.95256e-014 -90 -90   XYZ
    dof rx
    limits (0.0 90.0)
  end
  begin
     id 30
     name rthumb
     direction -0.707107 -6.34911e-011 0.707107   
     length 0.834968   
     axis -90 -45 -2.85299e-015   XYZ
    dof rx rz
    limits (-45.0 45.0)
           (-45.0 45.0)
  end
:hierarchy
  begin
    root lhipjoint rhipjoint lowerback
    lhipjoint lfemur
    lfemur ltibia
    ltibia lfoot
    lfoot ltoes
    rhipjoint rfemur
    rfemur rtibia
    rtibia rfoot
    rfoot rtoes
    lowerback upperback
    upperback thorax
    thorax lowerneck lclavicle rclavicle
    lowerneck upperneck
    upperneck head
    lclavicle lhumerus
    lhumerus lradius
    lradius lwrist
    lwrist lhand lthumb
    lhand lfingers
    rclavicle rhumerus
    rhumerus rradius
    rradius rwrist
    rwrist rhand rthumb
    rhand rfingers
  end

#!OML:ASF I:\salsa\salsa 7_09\Patient 1\Session 1\dancerfemale.ASF
:FULLY-SPECIFIED
:DEGREES
923
root 9.10695 16.0434 -1.06799 177.863 -506.988 -895.593
lowerback 12.8554 -2.2879 -10.5919
upperback -6.74196 -5.23548 -0.449949
thorax -13.9915 -1.47758 6.7072
lowerneck 10.8791 -13.5453 -8.4217
upperneck 4.29321 -19.8147 16.1488
head 1.995 -10.2793 6.10553
rclavicle 6.13748e-014 4.45278e-014
rhumerus -38.2109 -24.5035 -79.8166
rradius 95.9743
rwrist -50.4749
rhand -26.8392 80.6627
rfingers 7.12502
rthumb -0.264823 -669.317
lclavicle 6.13748e-014 4.45278e-014
lhumerus -42.3266 15.7186 42.9284
lradius 89.1473
lwrist -20.5383
lhand -13.1055 47.1086
lfingers 7.12502
lthumb 12.9915 76.6841
rfemur -26.0629 13.6911 8.17964
rtibia 37.1857
rfoot 2.67818 -6.58814
rtoes 64.2983
lfemur -7.30062 0.499716 -19.5822
ltibia 34.7603
lfoot -24.1245 -9.60758
ltoes -59.9393
924
root 9.36261 16.0064 -1.10974 176.968 -505.241 -894.82
lowerback 13.4678 -2.33547 -10.4591
upperback -6.59365 -5.38218 -0.745665
thorax -14.2062 -1.56372 6.37491
lowerneck 10.422 -13.0116 -8.375
upperneck 5.42929 -19.1986 15.7052
head 2.27444 -9.92565 5.92967
rclavicle 5.13361e-014 -6.36111e-015
rhumerus -38.9575 -23.5987 -79.5748
rradius 96.224
rwrist -50.0359
rhand -27.2775 79.3381
rfingers 7.12502
rthumb -0.688066 -670.641
lclavicle 5.13361e-014 -6.36111e-015
lhumerus -39.7088 16.3152 44.9158
lradius 90.6198
lwrist -19.1747
lhand -13.6784 48.0696
lfingers 7.12502
lthumb 12.4392 77.6794
rfemur -26.7834 12.6683 8.25513
rtibia 39.6316
rfoot 5.47502 -15.4177
rtoes 58.0581
lfemur -7.07234 -0.0680495 -21.2859
ltibia 34.5007
lfoot -23.6763 -7.37676
ltoes -59.6612
925
root 9.59947 15.9456 -1.15407 175.875 -503.597 -893.799
lowerback 14.0299 -2.34733 -10.565
upperback -6.45818 -5.5441 -1.17688
thorax -14.4045 -1.64462 6.02312
lowerneck 10.0893 -12.5265 -8.18829
upperneck 6.58515 -18.6385 15.222
head 2.53538 -9.60644 5.73266
rclavicle -1.11319e-014 2.90226e-014
rhumerus -39.2753 -22.5133 -79.3884
rradius 96.2386
rwrist -49.2101
rhand -28.02 77.8738
rfingers 7.12502
rthumb -1.40519 -672.101
lclavicle -1.11319e-014 2.90226e-014
lhumerus -36.856 16.344 47.2134
lradius 92.0315
lwrist -16.6549
lhand -14.4631 49.4588
lfingers 7.12502
lthumb 11.6826 79.1131
rfemur -27.2591 11.9406 8.19421
rtibia 42.2081
rfoot 5.82947 -22.6416
rtoes 48.5142
lfemur -7.2101 0.844881 -22.8133
ltibia 34.654
lfoot -23.4448 -6.6266
ltoes -59.3216
926
root 9.81489 15.8988 -1.2005 174.562 -501.924 -892.584
lowerback 14.5297 -2.27863 -10.9341
upperback -6.32061 -5.66407 -1.71437
thorax -14.5656 -1.69191 5.68205
lowerneck 9.80803 -12.0895 -7.67312
upperneck 7.75948 -18.1066 14.6096
head 2.76255 -9.2995 5.45575
rclavicle 1.7011e-013 7.15625e-015
rhumerus -39.2167 -21.14 -79.4511
rradius 96.2081
rwrist -48.457
rhand -28.901 76.4769
rfingers 7.12502
rthumb -2.25611 -673.491
lclavicle 1.7011e-013 7.15625e-015
lhumerus -33.8963 16.1058 49.6862
lradius 93.2677
lwrist -12.7469
lhand -15.5389 50.6142
lfingers 7.12502
lthumb 10.645 80.3246
rfemur -27.4845 11.4559 8.18893
rtibia 44.854
rfoot 4.21947 -27.884
rtoes 39.3925
lfemur -7.41769 1.54846 -24.4258
ltibia 35.0296
lfoot -22.7736 -5.64853
ltoes -58.969
927
root 10.0147 15.861 -1.24474 173.128 -500.203 -890.956
lowerback 14.6372 -2.13224 -11.5978
upperback -6.19807 -5.7088 -2.35882
thorax -14.5078 -1.70315 5.33377
lowerneck 9.49073 -11.7203 -7.07843
upperneck 8.89413 -17.6508 13.9787
head 2.99209 -9.02878 5.15613
rclavicle 1.53064e-014 2.74323e-014
rhumerus -38.6182 -20.0077 -79.5814
rradius 96.1085
rwrist -48.2291
rhand -29.3093 75.0993
rfingers 7.12502
rthumb -2.65042 -674.864
lclavicle 1.53064e-014 2.74323e-014
lhumerus -30.6942 15.594 52.5226
lradius 94.4228
lwrist -7.2915
lhand -16.3816 52.0267
lfingers 7.12502
lthumb 9.83196 81.7772
rfemur -27.7073 11.0381 7.9849
rtibia 47.4531
rfoot 2.14643 -30.6939
rtoes 32.6233
lfemur -7.78595 2.13014 -26.3326
ltibia 35.3596
lfoot -21.9652 -4.27246
ltoes -58.621
928
root 10.1972 15.8373 -1.28514 171.457 -498.387 -888.878
lowerback 14.3784 -1.90253 -12.5628
upperback -6.0531 -5.65555 -3.07641
thorax -14.2035 -1.66935 5.01767
lowerneck 9.2559 -11.3905 -6.65633
upperneck 9.78029 -17.2521 13.5608
head 3.17925 -8.79908 4.95343
rclavicle -1.12313e-014 4.29375e-014
rhumerus -37.3681 -18.9003 -79.8619
rradius 96.1578
rwrist -49.1726
rhand -29.2322 74.0305
rfingers 7.12502
rthumb -2.57594 -675.934
lclavicle -1.12313e-014 4.29375e-014
lhumerus -27.6154 14.7541 55.5153
lradius 95.3664
lwrist -0.156139
lhand -17.511 53.2294
lfingers 7.12502
lthumb 8.74228 83.0283
rfemur -27.9557 10.7627 7.55718
rtibia 49.9562
rfoot 0.541803 -31.0045
rtoes 29.2514
lfemur -8.11785 2.92564 -28.4239
ltibia 35.4275
lfoot -21.2368 -2.85523
ltoes -58.2914
